<svg data-v-1084b650="" xmlns="http://www.w3.org/2000/svg" viewBox="0 0 300 300"><!----> <!----> <rect data-v-1084b650="" fill="#ffffff" x="0" y="0" width="300px" height="300px" class="logo-background-square"></rect> <!----> <g data-v-1084b650="" id="9c93937e-0d18-07a3-7bcd-9e3fe90a1efc" fill="#000000" transform="matrix(6.999999999999997,0,0,6.999999999999997,40.73000288009648,175.28049468994143)"><path d="M0.85 12.26L0.85 12.26L0.85 10.62L0.85 10.62Q2.32 11.17 4.18 11.17L4.18 11.17L4.18 11.17Q6.43 11.17 6.43 9.67L6.43 9.67L6.43 9.67Q6.43 8.57 5.04 8.57L5.04 8.57L3.51 8.57L3.51 8.57Q0.51 8.57 0.51 5.84L0.51 5.84L0.51 5.84Q0.51 2.83 4.79 2.83L4.79 2.83L4.79 2.83Q6.43 2.83 7.90 3.31L7.90 3.31L7.90 4.95L7.90 4.95Q6.43 4.40 4.79 4.40L4.79 4.40L4.79 4.40Q2.32 4.40 2.32 5.84L2.32 5.84L2.32 5.84Q2.32 6.93 3.51 6.93L3.51 6.93L5.04 6.93L5.04 6.93Q8.24 6.93 8.24 9.67L8.24 9.67L8.24 9.67Q8.24 12.74 4.18 12.74L4.18 12.74L4.18 12.74Q2.32 12.74 0.85 12.26ZM14 4.76L10.78 12.67L8.92 12.67L13.07 2.90L15.02 2.90L19.26 12.67L17.31 12.67L16.19 10.01L12.95 10.01L13.57 8.44L15.54 8.44L14 4.76ZM22.13 12.67L20.45 12.67L20.45 2.90L22.33 2.90L25.65 10.32L28.90 2.90L30.71 2.90L30.71 12.67L29.03 12.67L29.03 5.87L26.38 12.67L24.83 12.67L22.13 5.87L22.13 12.67Z"></path></g> <linearGradient data-v-1084b650="" gradientTransform="rotate(25)" id="bf5a7299-f4d7-fd19-7a02-07e99d647ec0" x1="0%" y1="0%" x2="100%" y2="0%"><stop data-v-1084b650="" offset="0%" style="stop-color: rgb(13, 33, 117); stop-opacity: 1;"></stop> <stop data-v-1084b650="" offset="100%" style="stop-color: rgb(31, 30, 251); stop-opacity: 1;"></stop></linearGradient> <g data-v-1084b650="" id="3f13cdb1-53fd-04be-ca1b-58b89ec5e640" fill="url(#bf5a7299-f4d7-fd19-7a02-07e99d647ec0)" stroke="none" transform="matrix(0.5646924576915292,0,0,0.5646924576915292,65.2536125412596,20.186935980498063)"><svg xmlns="http://www.w3.org/2000/svg" viewBox="0 0 100 100"><path d="M69 47.09v-8.57a1 1 0 0 0-.68-.95l-17.5-6a1 1 0 0 0-.64 0l-17.5 6a1 1 0 0 0-.68.95v8.57a27.59 27.59 0 0 0 10.18 21.83l7.32 5.37a1.12 1.12 0 0 0 1.31 0l7.7-5.41A27.71 27.71 0 0 0 69 47.09zm-11.67 20.2l-7.15 5-6.79-5A25.58 25.58 0 0 1 34 47.09v-7.85l16.5-5.62L67 39.24v7.86a25.7 25.7 0 0 1-9.67 20.19z"></path><path d="M57.21 45l-7 7.9-2.29-2.29a3.37 3.37 0 1 0-4.77 4.76l6.4 6.37a1 1 0 0 0 .71.25.94.94 0 0 0 .72-.28l11-12A3.37 3.37 0 1 0 57.21 45zm3.37 3.35L50.24 59.64 44.58 54a1.38 1.38 0 0 1 1.94-2l3 3a1 1 0 0 0 .74.29A1 1 0 0 0 51 55l7.65-8.65a1.38 1.38 0 1 1 1.92 2z"></path><path d="M90.48 49.94a1.34 1.34 0 0 0-1.35 1.58l-11 6.4 4.29-15.82a1.37 1.37 0 1 0-1-.26l-4.28 15.79a1.36 1.36 0 0 0-1.16 1l-3.61.26A37.4 37.4 0 0 0 75 45.06v-11.5a1 1 0 0 0-.68-.95l-1.42-.47 3-7.76A1.37 1.37 0 0 0 77.29 23c0-.76-.39-1.37-1.15-1.37S75 22.24 75 23l-13.56 5.24-3.31-1.07-3-15.59a1.32 1.32 0 0 0 .52-.67l12.44 1.24a1.36 1.36 0 0 0 2.32.55l12.07 4.64a1.38 1.38 0 1 0 .36-.93l-12.03-4.62a1.37 1.37 0 0 0-2.58-.61L55.78 9.93h-.14a1.37 1.37 0 1 0-1.94 1.68L52 25.16l-1.66-.55h-.05l-1.7-3.43a1.37 1.37 0 1 0-2.34-1.23l-7.16 1a1.37 1.37 0 0 0-.93-.67L36.75 13a1.37 1.37 0 1 0-2.09-1.22l-9.82 3.36a1.37 1.37 0 1 0 .32.95L35 12.68a1.36 1.36 0 0 0 .78.46l1.38 7.32a1.37 1.37 0 1 0 2.06 1.48l7.16-1a1.36 1.36 0 0 0 1.19.7h.11l1.56 3.15-23.56 7.82a1 1 0 0 0-.68.95v8.9l-4.09 1.61a1.36 1.36 0 0 0-1.1-.68l-8.06-25 .13-.12 18.93 7.59a1.38 1.38 0 1 0 .38-.94l-18.93-7.56a1.37 1.37 0 1 0-1.46 1.36l8.05 25A1.37 1.37 0 1 0 21 45.09l4-1.55v1.53a37.08 37.08 0 0 0 .26 4.32l-5.82 1.69A1.36 1.36 0 0 0 17 52.31l-6.8 5.49a1.36 1.36 0 0 0-.68-.19 1.37 1.37 0 1 0 .29 2.71l2.8 4.21a1.37 1.37 0 1 0 2.45 1.11l7.75-1a1.37 1.37 0 1 0 1.19-2h-.09l-4.56-9.74a1.36 1.36 0 0 0 .37-.81l5.69-1.65A36.67 36.67 0 0 0 32.3 67l-10.75 6.2a1.37 1.37 0 0 0-1.82 2l-2.83 8.66a1.38 1.38 0 1 0 .95.31l2.8-8.5A1.34 1.34 0 0 0 22 74.1l10.85-6.26A37.86 37.86 0 0 0 37 72.29l-5.09 3.27a1.37 1.37 0 1 0 .22 1L37.8 73c.43.37.86.75 1.31 1.11l2.07 14.27a1.37 1.37 0 1 0 1-.15l-1.9-13.33 9.21 6.4a1.16 1.16 0 0 0 .67.21 1.18 1.18 0 0 0 .67-.22l6.73-4.74 15.67 11.31a1.37 1.37 0 1 0 2.29-.63l7.31-16.92 2.77 5.14a1.37 1.37 0 1 0 1-.49h-.16l-3.14-5.84 7.11-16.47a1.37 1.37 0 0 0 0-2.74zM22.67 63.62l-7.75 1a1.35 1.35 0 0 0-1.48-.62l-2.8-4.21a1.32 1.32 0 0 0 .18-1.19l6.85-5.49a1.36 1.36 0 0 0 .68.19h.09L23 63a1.36 1.36 0 0 0-.33.62zm52.25-39.69L75 24l-3 7.81-9.26-3.09zM54.46 13.64l2.47 13.17-4-1.33zm-4.3 65.68l-9.86-6.84A34.92 34.92 0 0 1 27 45.06V34.28l23-7.67 23 7.67v10.78a34.81 34.81 0 0 1-13.08 27.39zm24.44 7.52a1.36 1.36 0 0 0-.74.22L58.42 75.95l2.7-1.9a36.63 36.63 0 0 0 10.8-14.1l4.17-.32a1.37 1.37 0 0 0 1.2.73h.16l4.76 8.85zm3.74-27a1.28 1.28 0 0 0 .31-1.09l10.77-6.25-6.7 15.5z"></path></svg></g></svg>